<mxfile host="app.diagrams.net" agent="Mozilla/5.0 (Windows NT 10.0; Win64; x64) AppleWebKit/537.36 (KHTML, like Gecko) Chrome/141.0.0.0 Safari/537.36" version="28.2.5">
  <diagram name="Page-1" id="4VCys80fIXsNl4EApBjB">
    <mxGraphModel dx="848" dy="515" grid="1" gridSize="10" guides="1" tooltips="1" connect="1" arrows="1" fold="1" page="1" pageScale="1" pageWidth="827" pageHeight="1169" math="0" shadow="0">
      <root>
        <mxCell id="0" />
        <mxCell id="1" parent="0" />
        <mxCell id="50cx5ybg6WjsTkt2_30P-1" value="+" style="rounded=0;whiteSpace=wrap;html=1;" vertex="1" parent="1">
          <mxGeometry x="160" y="85" width="50" height="90" as="geometry" />
        </mxCell>
        <mxCell id="50cx5ybg6WjsTkt2_30P-2" value="" style="group;rotation=-90;" vertex="1" connectable="0" parent="1">
          <mxGeometry x="380" y="125" width="90" height="70" as="geometry" />
        </mxCell>
        <mxCell id="50cx5ybg6WjsTkt2_30P-3" value="" style="rounded=0;whiteSpace=wrap;html=1;rotation=-90;" vertex="1" parent="50cx5ybg6WjsTkt2_30P-2">
          <mxGeometry y="-20" width="90" height="50" as="geometry" />
        </mxCell>
        <mxCell id="50cx5ybg6WjsTkt2_30P-4" value="" style="group;rotation=-90;" vertex="1" connectable="0" parent="50cx5ybg6WjsTkt2_30P-2">
          <mxGeometry x="30" y="-10" width="26" height="20" as="geometry" />
        </mxCell>
        <mxCell id="50cx5ybg6WjsTkt2_30P-5" value="" style="endArrow=none;html=1;rounded=0;" edge="1" parent="50cx5ybg6WjsTkt2_30P-4">
          <mxGeometry width="50" height="50" relative="1" as="geometry">
            <mxPoint x="13" y="23" as="sourcePoint" />
            <mxPoint x="13" y="-3" as="targetPoint" />
          </mxGeometry>
        </mxCell>
        <mxCell id="50cx5ybg6WjsTkt2_30P-6" value="" style="endArrow=none;html=1;rounded=0;" edge="1" parent="50cx5ybg6WjsTkt2_30P-4">
          <mxGeometry width="50" height="50" relative="1" as="geometry">
            <mxPoint x="13" y="23" as="sourcePoint" />
            <mxPoint x="3" y="23" as="targetPoint" />
          </mxGeometry>
        </mxCell>
        <mxCell id="50cx5ybg6WjsTkt2_30P-7" value="" style="endArrow=none;html=1;rounded=0;" edge="1" parent="50cx5ybg6WjsTkt2_30P-4">
          <mxGeometry width="50" height="50" relative="1" as="geometry">
            <mxPoint x="23" y="-3" as="sourcePoint" />
            <mxPoint x="13" y="-3" as="targetPoint" />
          </mxGeometry>
        </mxCell>
        <mxCell id="50cx5ybg6WjsTkt2_30P-8" value="" style="endArrow=none;html=1;rounded=0;" edge="1" parent="50cx5ybg6WjsTkt2_30P-4">
          <mxGeometry width="50" height="50" relative="1" as="geometry">
            <mxPoint x="13" y="3" as="sourcePoint" />
            <mxPoint x="3" y="13" as="targetPoint" />
            <Array as="points">
              <mxPoint x="13" y="3" />
            </Array>
          </mxGeometry>
        </mxCell>
        <mxCell id="50cx5ybg6WjsTkt2_30P-9" value="" style="endArrow=none;html=1;rounded=0;" edge="1" parent="50cx5ybg6WjsTkt2_30P-4">
          <mxGeometry width="50" height="50" relative="1" as="geometry">
            <mxPoint x="13" y="3" as="sourcePoint" />
            <mxPoint x="23" y="13" as="targetPoint" />
          </mxGeometry>
        </mxCell>
        <mxCell id="50cx5ybg6WjsTkt2_30P-10" value="" style="triangle;whiteSpace=wrap;html=1;rotation=-90;" vertex="1" parent="50cx5ybg6WjsTkt2_30P-2">
          <mxGeometry x="35" y="15" width="20" height="50" as="geometry" />
        </mxCell>
        <mxCell id="50cx5ybg6WjsTkt2_30P-11" value="" style="endArrow=none;html=1;rounded=0;entryX=0.004;entryY=0.779;entryDx=0;entryDy=0;entryPerimeter=0;" edge="1" parent="1" target="50cx5ybg6WjsTkt2_30P-1">
          <mxGeometry width="50" height="50" relative="1" as="geometry">
            <mxPoint x="120" y="155" as="sourcePoint" />
            <mxPoint x="130" y="205" as="targetPoint" />
          </mxGeometry>
        </mxCell>
        <mxCell id="50cx5ybg6WjsTkt2_30P-12" value="" style="verticalLabelPosition=bottom;shadow=0;dashed=0;align=center;html=1;verticalAlign=top;shape=mxgraph.electrical.opto_electronics.7_segment_display;pointerEvents=1;" vertex="1" parent="1">
          <mxGeometry x="930" y="32.5" width="30" height="40" as="geometry" />
        </mxCell>
        <mxCell id="50cx5ybg6WjsTkt2_30P-13" value="" style="verticalLabelPosition=bottom;shadow=0;dashed=0;align=center;html=1;verticalAlign=top;shape=mxgraph.electrical.opto_electronics.7_segment_display;pointerEvents=1;" vertex="1" parent="1">
          <mxGeometry x="1020" y="32.5" width="30" height="40" as="geometry" />
        </mxCell>
        <mxCell id="50cx5ybg6WjsTkt2_30P-14" value="" style="verticalLabelPosition=bottom;shadow=0;dashed=0;align=center;html=1;verticalAlign=top;shape=mxgraph.electrical.opto_electronics.7_segment_display;pointerEvents=1;" vertex="1" parent="1">
          <mxGeometry x="1060" y="32.5" width="30" height="40" as="geometry" />
        </mxCell>
        <mxCell id="50cx5ybg6WjsTkt2_30P-15" value="1" style="text;html=1;align=center;verticalAlign=middle;whiteSpace=wrap;rounded=0;" vertex="1" parent="1">
          <mxGeometry x="100" y="135" width="20" height="30" as="geometry" />
        </mxCell>
        <mxCell id="50cx5ybg6WjsTkt2_30P-16" value="" style="endArrow=none;html=1;rounded=0;entryX=0;entryY=0.5;entryDx=0;entryDy=0;exitX=1;exitY=0.5;exitDx=0;exitDy=0;" edge="1" parent="1" source="50cx5ybg6WjsTkt2_30P-17" target="50cx5ybg6WjsTkt2_30P-10">
          <mxGeometry width="50" height="50" relative="1" as="geometry">
            <mxPoint x="180" y="195" as="sourcePoint" />
            <mxPoint x="230" y="235" as="targetPoint" />
            <Array as="points">
              <mxPoint x="290" y="195" />
              <mxPoint x="425" y="195" />
            </Array>
          </mxGeometry>
        </mxCell>
        <mxCell id="50cx5ybg6WjsTkt2_30P-17" value="" style="rounded=0;whiteSpace=wrap;html=1;" vertex="1" parent="1">
          <mxGeometry x="60" y="185" width="20" height="20" as="geometry" />
        </mxCell>
        <mxCell id="50cx5ybg6WjsTkt2_30P-18" value="" style="rounded=0;whiteSpace=wrap;html=1;" vertex="1" parent="1">
          <mxGeometry x="60" y="55" width="20" height="20" as="geometry" />
        </mxCell>
        <mxCell id="50cx5ybg6WjsTkt2_30P-19" value="" style="endArrow=none;html=1;rounded=0;entryX=1;entryY=0.5;entryDx=0;entryDy=0;exitX=1;exitY=0.5;exitDx=0;exitDy=0;" edge="1" parent="1" source="50cx5ybg6WjsTkt2_30P-18" target="50cx5ybg6WjsTkt2_30P-3">
          <mxGeometry width="50" height="50" relative="1" as="geometry">
            <mxPoint x="290" y="335" as="sourcePoint" />
            <mxPoint x="340" y="285" as="targetPoint" />
            <Array as="points">
              <mxPoint x="425" y="65" />
            </Array>
          </mxGeometry>
        </mxCell>
        <mxCell id="50cx5ybg6WjsTkt2_30P-20" value="" style="endArrow=none;html=1;rounded=0;" edge="1" parent="1">
          <mxGeometry width="50" height="50" relative="1" as="geometry">
            <mxPoint x="235" y="149.66999999999996" as="sourcePoint" />
            <mxPoint x="245" y="139.66999999999996" as="targetPoint" />
          </mxGeometry>
        </mxCell>
        <mxCell id="50cx5ybg6WjsTkt2_30P-21" value="" style="endArrow=none;html=1;rounded=0;exitDx=0;exitDy=0;entryX=0.5;entryY=1;entryDx=0;entryDy=0;" edge="1" parent="1" source="50cx5ybg6WjsTkt2_30P-133" target="50cx5ybg6WjsTkt2_30P-109">
          <mxGeometry width="50" height="50" relative="1" as="geometry">
            <mxPoint x="650" y="235" as="sourcePoint" />
            <mxPoint x="580" y="128" as="targetPoint" />
            <Array as="points">
              <mxPoint x="570" y="180" />
              <mxPoint x="645" y="180" />
            </Array>
          </mxGeometry>
        </mxCell>
        <mxCell id="50cx5ybg6WjsTkt2_30P-22" value="" style="endArrow=none;html=1;rounded=0;" edge="1" parent="1">
          <mxGeometry width="50" height="50" relative="1" as="geometry">
            <mxPoint x="480" y="135" as="sourcePoint" />
            <mxPoint x="490" y="125" as="targetPoint" />
          </mxGeometry>
        </mxCell>
        <mxCell id="50cx5ybg6WjsTkt2_30P-23" value="24&amp;nbsp;&lt;div&gt;CPT&lt;/div&gt;" style="text;html=1;align=center;verticalAlign=middle;whiteSpace=wrap;rounded=0;" vertex="1" parent="1">
          <mxGeometry x="460" y="135" width="60" height="30" as="geometry" />
        </mxCell>
        <mxCell id="50cx5ybg6WjsTkt2_30P-24" value="" style="rounded=0;whiteSpace=wrap;html=1;" vertex="1" parent="1">
          <mxGeometry x="810" y="32.5" width="30" height="30" as="geometry" />
        </mxCell>
        <mxCell id="50cx5ybg6WjsTkt2_30P-25" value="" style="triangle;whiteSpace=wrap;html=1;" vertex="1" parent="1">
          <mxGeometry x="810" y="32.5" width="30" height="30" as="geometry" />
        </mxCell>
        <mxCell id="50cx5ybg6WjsTkt2_30P-26" value="" style="endArrow=none;html=1;rounded=0;entryX=0;entryY=0.5;entryDx=0;entryDy=0;exitX=0;exitY=0.5;exitDx=0;exitDy=0;" edge="1" parent="1" target="50cx5ybg6WjsTkt2_30P-25">
          <mxGeometry width="50" height="50" relative="1" as="geometry">
            <mxPoint x="810" y="297.5" as="sourcePoint" />
            <mxPoint x="720" y="242.5" as="targetPoint" />
            <Array as="points">
              <mxPoint x="780" y="297.5" />
              <mxPoint x="780" y="47.5" />
            </Array>
          </mxGeometry>
        </mxCell>
        <mxCell id="50cx5ybg6WjsTkt2_30P-28" value="" style="endArrow=none;html=1;rounded=0;entryX=1;entryY=0.5;entryDx=0;entryDy=0;" edge="1" parent="1" source="50cx5ybg6WjsTkt2_30P-30" target="50cx5ybg6WjsTkt2_30P-25">
          <mxGeometry width="50" height="50" relative="1" as="geometry">
            <mxPoint x="860" y="47.5" as="sourcePoint" />
            <mxPoint x="960" y="222.5" as="targetPoint" />
          </mxGeometry>
        </mxCell>
        <mxCell id="50cx5ybg6WjsTkt2_30P-29" value="" style="endArrow=none;html=1;rounded=0;entryX=1;entryY=0.5;entryDx=0;entryDy=0;" edge="1" parent="1" target="50cx5ybg6WjsTkt2_30P-30">
          <mxGeometry width="50" height="50" relative="1" as="geometry">
            <mxPoint x="860" y="47.5" as="sourcePoint" />
            <mxPoint x="840" y="47.5" as="targetPoint" />
          </mxGeometry>
        </mxCell>
        <mxCell id="50cx5ybg6WjsTkt2_30P-30" value="" style="rounded=0;whiteSpace=wrap;html=1;" vertex="1" parent="1">
          <mxGeometry x="870" y="42.5" width="10" height="10" as="geometry" />
        </mxCell>
        <mxCell id="50cx5ybg6WjsTkt2_30P-31" value="" style="endArrow=none;html=1;rounded=0;" edge="1" parent="1">
          <mxGeometry width="50" height="50" relative="1" as="geometry">
            <mxPoint x="850" y="52.5" as="sourcePoint" />
            <mxPoint x="860" y="42.5" as="targetPoint" />
          </mxGeometry>
        </mxCell>
        <mxCell id="50cx5ybg6WjsTkt2_30P-32" value="8" style="text;html=1;align=center;verticalAlign=middle;whiteSpace=wrap;rounded=0;" vertex="1" parent="1">
          <mxGeometry x="850" y="52.5" width="10" height="10" as="geometry" />
        </mxCell>
        <mxCell id="50cx5ybg6WjsTkt2_30P-33" value="" style="rounded=0;whiteSpace=wrap;html=1;" vertex="1" parent="1">
          <mxGeometry x="810" y="82.5" width="30" height="30" as="geometry" />
        </mxCell>
        <mxCell id="50cx5ybg6WjsTkt2_30P-34" value="" style="triangle;whiteSpace=wrap;html=1;" vertex="1" parent="1">
          <mxGeometry x="810" y="82.5" width="30" height="30" as="geometry" />
        </mxCell>
        <mxCell id="50cx5ybg6WjsTkt2_30P-35" value="" style="endArrow=none;html=1;rounded=0;entryX=1;entryY=0.5;entryDx=0;entryDy=0;" edge="1" parent="1" source="50cx5ybg6WjsTkt2_30P-37" target="50cx5ybg6WjsTkt2_30P-34">
          <mxGeometry width="50" height="50" relative="1" as="geometry">
            <mxPoint x="860" y="97.5" as="sourcePoint" />
            <mxPoint x="960" y="272.5" as="targetPoint" />
          </mxGeometry>
        </mxCell>
        <mxCell id="50cx5ybg6WjsTkt2_30P-36" value="" style="endArrow=none;html=1;rounded=0;entryX=1;entryY=0.5;entryDx=0;entryDy=0;" edge="1" parent="1" target="50cx5ybg6WjsTkt2_30P-37">
          <mxGeometry width="50" height="50" relative="1" as="geometry">
            <mxPoint x="860" y="97.5" as="sourcePoint" />
            <mxPoint x="840" y="97.5" as="targetPoint" />
          </mxGeometry>
        </mxCell>
        <mxCell id="50cx5ybg6WjsTkt2_30P-37" value="" style="rounded=0;whiteSpace=wrap;html=1;" vertex="1" parent="1">
          <mxGeometry x="870" y="92.5" width="10" height="10" as="geometry" />
        </mxCell>
        <mxCell id="50cx5ybg6WjsTkt2_30P-38" value="" style="endArrow=none;html=1;rounded=0;" edge="1" parent="1">
          <mxGeometry width="50" height="50" relative="1" as="geometry">
            <mxPoint x="850" y="102.5" as="sourcePoint" />
            <mxPoint x="860" y="92.5" as="targetPoint" />
          </mxGeometry>
        </mxCell>
        <mxCell id="50cx5ybg6WjsTkt2_30P-39" value="8" style="text;html=1;align=center;verticalAlign=middle;whiteSpace=wrap;rounded=0;" vertex="1" parent="1">
          <mxGeometry x="850" y="102.5" width="10" height="10" as="geometry" />
        </mxCell>
        <mxCell id="50cx5ybg6WjsTkt2_30P-40" value="" style="rounded=0;whiteSpace=wrap;html=1;" vertex="1" parent="1">
          <mxGeometry x="810" y="132.5" width="30" height="30" as="geometry" />
        </mxCell>
        <mxCell id="50cx5ybg6WjsTkt2_30P-41" value="" style="triangle;whiteSpace=wrap;html=1;" vertex="1" parent="1">
          <mxGeometry x="810" y="132.5" width="30" height="30" as="geometry" />
        </mxCell>
        <mxCell id="50cx5ybg6WjsTkt2_30P-42" value="" style="endArrow=none;html=1;rounded=0;entryX=1;entryY=0.5;entryDx=0;entryDy=0;" edge="1" parent="1" source="50cx5ybg6WjsTkt2_30P-44" target="50cx5ybg6WjsTkt2_30P-41">
          <mxGeometry width="50" height="50" relative="1" as="geometry">
            <mxPoint x="860" y="147.5" as="sourcePoint" />
            <mxPoint x="960" y="322.5" as="targetPoint" />
          </mxGeometry>
        </mxCell>
        <mxCell id="50cx5ybg6WjsTkt2_30P-43" value="" style="endArrow=none;html=1;rounded=0;entryX=1;entryY=0.5;entryDx=0;entryDy=0;" edge="1" parent="1" target="50cx5ybg6WjsTkt2_30P-44">
          <mxGeometry width="50" height="50" relative="1" as="geometry">
            <mxPoint x="860" y="147.5" as="sourcePoint" />
            <mxPoint x="840" y="147.5" as="targetPoint" />
          </mxGeometry>
        </mxCell>
        <mxCell id="50cx5ybg6WjsTkt2_30P-44" value="" style="rounded=0;whiteSpace=wrap;html=1;" vertex="1" parent="1">
          <mxGeometry x="870" y="142.5" width="10" height="10" as="geometry" />
        </mxCell>
        <mxCell id="50cx5ybg6WjsTkt2_30P-45" value="" style="endArrow=none;html=1;rounded=0;" edge="1" parent="1">
          <mxGeometry width="50" height="50" relative="1" as="geometry">
            <mxPoint x="850" y="152.5" as="sourcePoint" />
            <mxPoint x="860" y="142.5" as="targetPoint" />
          </mxGeometry>
        </mxCell>
        <mxCell id="50cx5ybg6WjsTkt2_30P-46" value="8" style="text;html=1;align=center;verticalAlign=middle;whiteSpace=wrap;rounded=0;" vertex="1" parent="1">
          <mxGeometry x="850" y="152.5" width="10" height="10" as="geometry" />
        </mxCell>
        <mxCell id="50cx5ybg6WjsTkt2_30P-47" value="" style="rounded=0;whiteSpace=wrap;html=1;" vertex="1" parent="1">
          <mxGeometry x="810" y="182.5" width="30" height="30" as="geometry" />
        </mxCell>
        <mxCell id="50cx5ybg6WjsTkt2_30P-48" value="" style="triangle;whiteSpace=wrap;html=1;" vertex="1" parent="1">
          <mxGeometry x="810" y="182.5" width="30" height="30" as="geometry" />
        </mxCell>
        <mxCell id="50cx5ybg6WjsTkt2_30P-49" value="" style="endArrow=none;html=1;rounded=0;entryX=1;entryY=0.5;entryDx=0;entryDy=0;" edge="1" parent="1" source="50cx5ybg6WjsTkt2_30P-51" target="50cx5ybg6WjsTkt2_30P-48">
          <mxGeometry width="50" height="50" relative="1" as="geometry">
            <mxPoint x="860" y="197.5" as="sourcePoint" />
            <mxPoint x="960" y="372.5" as="targetPoint" />
          </mxGeometry>
        </mxCell>
        <mxCell id="50cx5ybg6WjsTkt2_30P-50" value="" style="endArrow=none;html=1;rounded=0;entryX=1;entryY=0.5;entryDx=0;entryDy=0;" edge="1" parent="1" target="50cx5ybg6WjsTkt2_30P-51">
          <mxGeometry width="50" height="50" relative="1" as="geometry">
            <mxPoint x="860" y="197.5" as="sourcePoint" />
            <mxPoint x="840" y="197.5" as="targetPoint" />
          </mxGeometry>
        </mxCell>
        <mxCell id="50cx5ybg6WjsTkt2_30P-51" value="" style="rounded=0;whiteSpace=wrap;html=1;" vertex="1" parent="1">
          <mxGeometry x="870" y="192.5" width="10" height="10" as="geometry" />
        </mxCell>
        <mxCell id="50cx5ybg6WjsTkt2_30P-52" value="" style="endArrow=none;html=1;rounded=0;" edge="1" parent="1">
          <mxGeometry width="50" height="50" relative="1" as="geometry">
            <mxPoint x="850" y="202.5" as="sourcePoint" />
            <mxPoint x="860" y="192.5" as="targetPoint" />
          </mxGeometry>
        </mxCell>
        <mxCell id="50cx5ybg6WjsTkt2_30P-53" value="8" style="text;html=1;align=center;verticalAlign=middle;whiteSpace=wrap;rounded=0;" vertex="1" parent="1">
          <mxGeometry x="850" y="202.5" width="10" height="10" as="geometry" />
        </mxCell>
        <mxCell id="50cx5ybg6WjsTkt2_30P-54" value="" style="rounded=0;whiteSpace=wrap;html=1;" vertex="1" parent="1">
          <mxGeometry x="810" y="232.5" width="30" height="30" as="geometry" />
        </mxCell>
        <mxCell id="50cx5ybg6WjsTkt2_30P-55" value="" style="triangle;whiteSpace=wrap;html=1;" vertex="1" parent="1">
          <mxGeometry x="810" y="232.5" width="30" height="30" as="geometry" />
        </mxCell>
        <mxCell id="50cx5ybg6WjsTkt2_30P-56" value="" style="endArrow=none;html=1;rounded=0;entryX=1;entryY=0.5;entryDx=0;entryDy=0;" edge="1" parent="1" source="50cx5ybg6WjsTkt2_30P-58" target="50cx5ybg6WjsTkt2_30P-55">
          <mxGeometry width="50" height="50" relative="1" as="geometry">
            <mxPoint x="860" y="247.5" as="sourcePoint" />
            <mxPoint x="960" y="422.5" as="targetPoint" />
          </mxGeometry>
        </mxCell>
        <mxCell id="50cx5ybg6WjsTkt2_30P-57" value="" style="endArrow=none;html=1;rounded=0;entryX=1;entryY=0.5;entryDx=0;entryDy=0;" edge="1" parent="1" target="50cx5ybg6WjsTkt2_30P-58">
          <mxGeometry width="50" height="50" relative="1" as="geometry">
            <mxPoint x="860" y="247.5" as="sourcePoint" />
            <mxPoint x="840" y="247.5" as="targetPoint" />
          </mxGeometry>
        </mxCell>
        <mxCell id="50cx5ybg6WjsTkt2_30P-58" value="" style="rounded=0;whiteSpace=wrap;html=1;" vertex="1" parent="1">
          <mxGeometry x="870" y="242.5" width="10" height="10" as="geometry" />
        </mxCell>
        <mxCell id="50cx5ybg6WjsTkt2_30P-59" value="" style="endArrow=none;html=1;rounded=0;" edge="1" parent="1">
          <mxGeometry width="50" height="50" relative="1" as="geometry">
            <mxPoint x="850" y="252.5" as="sourcePoint" />
            <mxPoint x="860" y="242.5" as="targetPoint" />
          </mxGeometry>
        </mxCell>
        <mxCell id="50cx5ybg6WjsTkt2_30P-60" value="8" style="text;html=1;align=center;verticalAlign=middle;whiteSpace=wrap;rounded=0;" vertex="1" parent="1">
          <mxGeometry x="850" y="252.5" width="10" height="10" as="geometry" />
        </mxCell>
        <mxCell id="50cx5ybg6WjsTkt2_30P-61" value="" style="rounded=0;whiteSpace=wrap;html=1;" vertex="1" parent="1">
          <mxGeometry x="810" y="282.5" width="30" height="30" as="geometry" />
        </mxCell>
        <mxCell id="50cx5ybg6WjsTkt2_30P-62" value="" style="triangle;whiteSpace=wrap;html=1;" vertex="1" parent="1">
          <mxGeometry x="810" y="282.5" width="30" height="30" as="geometry" />
        </mxCell>
        <mxCell id="50cx5ybg6WjsTkt2_30P-63" value="" style="endArrow=none;html=1;rounded=0;entryX=1;entryY=0.5;entryDx=0;entryDy=0;" edge="1" parent="1" source="50cx5ybg6WjsTkt2_30P-65" target="50cx5ybg6WjsTkt2_30P-62">
          <mxGeometry width="50" height="50" relative="1" as="geometry">
            <mxPoint x="860" y="297.5" as="sourcePoint" />
            <mxPoint x="960" y="472.5" as="targetPoint" />
          </mxGeometry>
        </mxCell>
        <mxCell id="50cx5ybg6WjsTkt2_30P-64" value="" style="endArrow=none;html=1;rounded=0;entryX=1;entryY=0.5;entryDx=0;entryDy=0;" edge="1" parent="1" target="50cx5ybg6WjsTkt2_30P-65">
          <mxGeometry width="50" height="50" relative="1" as="geometry">
            <mxPoint x="860" y="297.5" as="sourcePoint" />
            <mxPoint x="840" y="297.5" as="targetPoint" />
          </mxGeometry>
        </mxCell>
        <mxCell id="50cx5ybg6WjsTkt2_30P-65" value="" style="rounded=0;whiteSpace=wrap;html=1;" vertex="1" parent="1">
          <mxGeometry x="870" y="292.5" width="10" height="10" as="geometry" />
        </mxCell>
        <mxCell id="50cx5ybg6WjsTkt2_30P-66" value="" style="endArrow=none;html=1;rounded=0;" edge="1" parent="1">
          <mxGeometry width="50" height="50" relative="1" as="geometry">
            <mxPoint x="850" y="302.5" as="sourcePoint" />
            <mxPoint x="860" y="292.5" as="targetPoint" />
          </mxGeometry>
        </mxCell>
        <mxCell id="50cx5ybg6WjsTkt2_30P-67" value="8" style="text;html=1;align=center;verticalAlign=middle;whiteSpace=wrap;rounded=0;" vertex="1" parent="1">
          <mxGeometry x="850" y="302.5" width="10" height="10" as="geometry" />
        </mxCell>
        <mxCell id="50cx5ybg6WjsTkt2_30P-68" value="" style="endArrow=none;html=1;rounded=0;entryX=0;entryY=0.5;entryDx=0;entryDy=0;" edge="1" parent="1" target="50cx5ybg6WjsTkt2_30P-55">
          <mxGeometry width="50" height="50" relative="1" as="geometry">
            <mxPoint x="780" y="247.5" as="sourcePoint" />
            <mxPoint x="730" y="292.5" as="targetPoint" />
          </mxGeometry>
        </mxCell>
        <mxCell id="50cx5ybg6WjsTkt2_30P-69" value="" style="endArrow=none;html=1;rounded=0;entryX=0;entryY=0.5;entryDx=0;entryDy=0;" edge="1" parent="1">
          <mxGeometry width="50" height="50" relative="1" as="geometry">
            <mxPoint x="780" y="197.17000000000002" as="sourcePoint" />
            <mxPoint x="810" y="197.17000000000002" as="targetPoint" />
          </mxGeometry>
        </mxCell>
        <mxCell id="50cx5ybg6WjsTkt2_30P-70" value="" style="endArrow=none;html=1;rounded=0;entryX=0;entryY=0.5;entryDx=0;entryDy=0;" edge="1" parent="1" source="50cx5ybg6WjsTkt2_30P-72">
          <mxGeometry width="50" height="50" relative="1" as="geometry">
            <mxPoint x="780" y="147.17000000000002" as="sourcePoint" />
            <mxPoint x="810" y="147.17000000000002" as="targetPoint" />
          </mxGeometry>
        </mxCell>
        <mxCell id="50cx5ybg6WjsTkt2_30P-71" value="" style="endArrow=none;html=1;rounded=0;entryX=0;entryY=0.5;entryDx=0;entryDy=0;" edge="1" parent="1" source="50cx5ybg6WjsTkt2_30P-106">
          <mxGeometry width="50" height="50" relative="1" as="geometry">
            <mxPoint x="780" y="97.17000000000002" as="sourcePoint" />
            <mxPoint x="810" y="97.17000000000002" as="targetPoint" />
          </mxGeometry>
        </mxCell>
        <mxCell id="50cx5ybg6WjsTkt2_30P-72" value="" style="shape=waypoint;sketch=0;fillStyle=solid;size=6;pointerEvents=1;points=[];fillColor=none;resizable=0;rotatable=0;perimeter=centerPerimeter;snapToPoint=1;" vertex="1" parent="1">
          <mxGeometry x="770" y="137.17000000000007" width="20" height="20" as="geometry" />
        </mxCell>
        <mxCell id="50cx5ybg6WjsTkt2_30P-73" value="" style="shape=waypoint;sketch=0;fillStyle=solid;size=6;pointerEvents=1;points=[];fillColor=none;resizable=0;rotatable=0;perimeter=centerPerimeter;snapToPoint=1;" vertex="1" parent="1">
          <mxGeometry x="770" y="187.5" width="20" height="20" as="geometry" />
        </mxCell>
        <mxCell id="50cx5ybg6WjsTkt2_30P-74" value="" style="shape=waypoint;sketch=0;fillStyle=solid;size=6;pointerEvents=1;points=[];fillColor=none;resizable=0;rotatable=0;perimeter=centerPerimeter;snapToPoint=1;" vertex="1" parent="1">
          <mxGeometry x="770" y="237.5" width="20" height="20" as="geometry" />
        </mxCell>
        <mxCell id="50cx5ybg6WjsTkt2_30P-75" value="CK" style="text;html=1;align=center;verticalAlign=middle;whiteSpace=wrap;rounded=0;" vertex="1" parent="1">
          <mxGeometry x="10" y="180" width="60" height="30" as="geometry" />
        </mxCell>
        <mxCell id="50cx5ybg6WjsTkt2_30P-76" value="RST" style="text;html=1;align=center;verticalAlign=middle;whiteSpace=wrap;rounded=0;" vertex="1" parent="1">
          <mxGeometry x="10" y="50" width="60" height="30" as="geometry" />
        </mxCell>
        <mxCell id="50cx5ybg6WjsTkt2_30P-77" value="Hex0" style="text;html=1;align=center;verticalAlign=middle;whiteSpace=wrap;rounded=0;" vertex="1" parent="1">
          <mxGeometry x="880" y="17.5" width="30" height="30" as="geometry" />
        </mxCell>
        <mxCell id="50cx5ybg6WjsTkt2_30P-78" value="Hex1" style="text;html=1;align=center;verticalAlign=middle;whiteSpace=wrap;rounded=0;" vertex="1" parent="1">
          <mxGeometry x="880" y="62.5" width="30" height="30" as="geometry" />
        </mxCell>
        <mxCell id="50cx5ybg6WjsTkt2_30P-79" value="Hex2" style="text;html=1;align=center;verticalAlign=middle;whiteSpace=wrap;rounded=0;" vertex="1" parent="1">
          <mxGeometry x="880" y="117.5" width="30" height="30" as="geometry" />
        </mxCell>
        <mxCell id="50cx5ybg6WjsTkt2_30P-80" value="Hex3" style="text;html=1;align=center;verticalAlign=middle;whiteSpace=wrap;rounded=0;" vertex="1" parent="1">
          <mxGeometry x="880" y="162.5" width="30" height="30" as="geometry" />
        </mxCell>
        <mxCell id="50cx5ybg6WjsTkt2_30P-81" value="Hex4" style="text;html=1;align=center;verticalAlign=middle;whiteSpace=wrap;rounded=0;" vertex="1" parent="1">
          <mxGeometry x="880" y="212.5" width="30" height="30" as="geometry" />
        </mxCell>
        <mxCell id="50cx5ybg6WjsTkt2_30P-82" value="Hex5" style="text;html=1;align=center;verticalAlign=middle;whiteSpace=wrap;rounded=0;" vertex="1" parent="1">
          <mxGeometry x="880" y="262.5" width="30" height="30" as="geometry" />
        </mxCell>
        <mxCell id="50cx5ybg6WjsTkt2_30P-83" value="" style="endArrow=none;html=1;rounded=0;exitX=1;exitY=0.75;exitDx=0;exitDy=0;entryX=0.451;entryY=1.098;entryDx=0;entryDy=0;entryPerimeter=0;" edge="1" parent="1" source="50cx5ybg6WjsTkt2_30P-65" target="50cx5ybg6WjsTkt2_30P-12">
          <mxGeometry width="50" height="50" relative="1" as="geometry">
            <mxPoint x="990" y="322.5" as="sourcePoint" />
            <mxPoint x="1040" y="272.5" as="targetPoint" />
            <Array as="points">
              <mxPoint x="944" y="297.5" />
            </Array>
          </mxGeometry>
        </mxCell>
        <mxCell id="50cx5ybg6WjsTkt2_30P-84" value="" style="endArrow=none;html=1;rounded=0;exitX=1;exitY=0.5;exitDx=0;exitDy=0;entryX=0.54;entryY=1.065;entryDx=0;entryDy=0;entryPerimeter=0;" edge="1" parent="1" source="50cx5ybg6WjsTkt2_30P-30" target="50cx5ybg6WjsTkt2_30P-14">
          <mxGeometry width="50" height="50" relative="1" as="geometry">
            <mxPoint x="980" y="162.5" as="sourcePoint" />
            <mxPoint x="1070" y="92.5" as="targetPoint" />
            <Array as="points">
              <mxPoint x="920" y="47.5" />
              <mxPoint x="920" y="92.5" />
              <mxPoint x="1076" y="92.5" />
            </Array>
          </mxGeometry>
        </mxCell>
        <mxCell id="50cx5ybg6WjsTkt2_30P-85" value="" style="endArrow=none;html=1;rounded=0;exitX=1;exitY=0.5;exitDx=0;exitDy=0;entryX=0.418;entryY=1.056;entryDx=0;entryDy=0;entryPerimeter=0;" edge="1" parent="1" source="50cx5ybg6WjsTkt2_30P-37" target="50cx5ybg6WjsTkt2_30P-13">
          <mxGeometry width="50" height="50" relative="1" as="geometry">
            <mxPoint x="1040" y="162.5" as="sourcePoint" />
            <mxPoint x="1090" y="112.5" as="targetPoint" />
            <Array as="points">
              <mxPoint x="910" y="97.5" />
              <mxPoint x="910" y="112.5" />
              <mxPoint x="1033" y="112.5" />
            </Array>
          </mxGeometry>
        </mxCell>
        <mxCell id="50cx5ybg6WjsTkt2_30P-86" value="" style="rounded=0;whiteSpace=wrap;html=1;strokeColor=#000000;" vertex="1" parent="1">
          <mxGeometry x="60" y="235" width="20" height="20" as="geometry" />
        </mxCell>
        <mxCell id="50cx5ybg6WjsTkt2_30P-87" value="PAUSE" style="text;html=1;align=center;verticalAlign=middle;whiteSpace=wrap;rounded=0;fontColor=#000000;" vertex="1" parent="1">
          <mxGeometry x="10" y="230" width="60" height="30" as="geometry" />
        </mxCell>
        <mxCell id="50cx5ybg6WjsTkt2_30P-88" value="" style="group" vertex="1" connectable="0" parent="1">
          <mxGeometry x="260" y="85" width="50" height="90" as="geometry" />
        </mxCell>
        <mxCell id="50cx5ybg6WjsTkt2_30P-89" value="" style="rounded=0;whiteSpace=wrap;html=1;" vertex="1" parent="50cx5ybg6WjsTkt2_30P-88">
          <mxGeometry width="50" height="90" as="geometry" />
        </mxCell>
        <mxCell id="50cx5ybg6WjsTkt2_30P-90" value="" style="triangle;whiteSpace=wrap;html=1;" vertex="1" parent="50cx5ybg6WjsTkt2_30P-88">
          <mxGeometry width="30" height="90" as="geometry" />
        </mxCell>
        <mxCell id="50cx5ybg6WjsTkt2_30P-91" value="1&lt;div&gt;&lt;br&gt;&lt;/div&gt;&lt;div&gt;&lt;br&gt;&lt;/div&gt;&lt;div&gt;&lt;br&gt;&lt;/div&gt;&lt;div&gt;0&lt;/div&gt;" style="text;html=1;align=center;verticalAlign=middle;whiteSpace=wrap;rounded=0;" vertex="1" parent="50cx5ybg6WjsTkt2_30P-88">
          <mxGeometry x="30" y="30" width="10" height="30" as="geometry" />
        </mxCell>
        <mxCell id="50cx5ybg6WjsTkt2_30P-92" value="" style="endArrow=none;html=1;rounded=0;exitX=1;exitY=0.5;exitDx=0;exitDy=0;entryX=0.5;entryY=1;entryDx=0;entryDy=0;" edge="1" parent="1" source="50cx5ybg6WjsTkt2_30P-86" target="50cx5ybg6WjsTkt2_30P-89">
          <mxGeometry width="50" height="50" relative="1" as="geometry">
            <mxPoint x="230" y="285" as="sourcePoint" />
            <mxPoint x="280" y="235" as="targetPoint" />
            <Array as="points">
              <mxPoint x="285" y="245" />
            </Array>
          </mxGeometry>
        </mxCell>
        <mxCell id="50cx5ybg6WjsTkt2_30P-93" value="" style="endArrow=none;html=1;rounded=0;" edge="1" parent="1" source="50cx5ybg6WjsTkt2_30P-27">
          <mxGeometry width="50" height="50" relative="1" as="geometry">
            <mxPoint x="670" y="119.73" as="sourcePoint" />
            <mxPoint x="780" y="120" as="targetPoint" />
            <Array as="points" />
          </mxGeometry>
        </mxCell>
        <mxCell id="50cx5ybg6WjsTkt2_30P-94" value="" style="endArrow=none;html=1;rounded=0;" edge="1" parent="1" source="50cx5ybg6WjsTkt2_30P-95">
          <mxGeometry width="50" height="50" relative="1" as="geometry">
            <mxPoint x="240" y="75" as="sourcePoint" />
            <mxPoint x="260" y="105" as="targetPoint" />
            <Array as="points">
              <mxPoint x="240" y="105" />
            </Array>
          </mxGeometry>
        </mxCell>
        <mxCell id="50cx5ybg6WjsTkt2_30P-95" value="" style="shape=waypoint;sketch=0;fillStyle=solid;size=6;pointerEvents=1;points=[];fillColor=none;resizable=0;rotatable=0;perimeter=centerPerimeter;snapToPoint=1;" vertex="1" parent="1">
          <mxGeometry x="230" y="62.5" width="20" height="20" as="geometry" />
        </mxCell>
        <mxCell id="50cx5ybg6WjsTkt2_30P-96" value="" style="endArrow=none;html=1;rounded=0;" edge="1" parent="1">
          <mxGeometry width="50" height="50" relative="1" as="geometry">
            <mxPoint x="160" y="110" as="sourcePoint" />
            <mxPoint x="690" y="120" as="targetPoint" />
            <Array as="points">
              <mxPoint x="110" y="110" />
              <mxPoint x="110" y="72.5" />
              <mxPoint x="320" y="72.5" />
              <mxPoint x="510" y="72.5" />
              <mxPoint x="580" y="72.5" />
              <mxPoint x="580" y="47.5" />
              <mxPoint x="690" y="47.5" />
            </Array>
          </mxGeometry>
        </mxCell>
        <mxCell id="50cx5ybg6WjsTkt2_30P-98" value="" style="endArrow=none;html=1;rounded=0;exitX=1;exitY=0.5;exitDx=0;exitDy=0;" edge="1" parent="1" source="50cx5ybg6WjsTkt2_30P-1">
          <mxGeometry width="50" height="50" relative="1" as="geometry">
            <mxPoint x="340" y="385" as="sourcePoint" />
            <mxPoint x="260" y="155" as="targetPoint" />
            <Array as="points">
              <mxPoint x="240" y="130" />
              <mxPoint x="240" y="155" />
            </Array>
          </mxGeometry>
        </mxCell>
        <mxCell id="50cx5ybg6WjsTkt2_30P-99" value="ADD" style="text;html=1;align=center;verticalAlign=middle;whiteSpace=wrap;rounded=0;" vertex="1" parent="1">
          <mxGeometry x="220" y="115" width="20" height="10" as="geometry" />
        </mxCell>
        <mxCell id="50cx5ybg6WjsTkt2_30P-100" value="24" style="text;html=1;align=center;verticalAlign=middle;whiteSpace=wrap;rounded=0;" vertex="1" parent="1">
          <mxGeometry x="240" y="150" width="10" height="30" as="geometry" />
        </mxCell>
        <mxCell id="50cx5ybg6WjsTkt2_30P-101" value="" style="endArrow=none;html=1;rounded=0;entryX=0.625;entryY=0.003;entryDx=0;entryDy=0;entryPerimeter=0;exitX=1.017;exitY=0.381;exitDx=0;exitDy=0;exitPerimeter=0;" edge="1" parent="1" source="50cx5ybg6WjsTkt2_30P-89" target="50cx5ybg6WjsTkt2_30P-3">
          <mxGeometry width="50" height="50" relative="1" as="geometry">
            <mxPoint x="340" y="195" as="sourcePoint" />
            <mxPoint x="390" y="145" as="targetPoint" />
          </mxGeometry>
        </mxCell>
        <mxCell id="50cx5ybg6WjsTkt2_30P-102" value="" style="endArrow=none;html=1;rounded=0;" edge="1" parent="1">
          <mxGeometry width="50" height="50" relative="1" as="geometry">
            <mxPoint x="350" y="125" as="sourcePoint" />
            <mxPoint x="360" y="115" as="targetPoint" />
          </mxGeometry>
        </mxCell>
        <mxCell id="50cx5ybg6WjsTkt2_30P-103" value="MUX&lt;div&gt;&lt;br&gt;&lt;/div&gt;&lt;div&gt;&lt;br&gt;&lt;/div&gt;&lt;div&gt;24&lt;/div&gt;" style="text;html=1;align=center;verticalAlign=middle;whiteSpace=wrap;rounded=0;" vertex="1" parent="1">
          <mxGeometry x="330" y="105" width="60" height="30" as="geometry" />
        </mxCell>
        <mxCell id="50cx5ybg6WjsTkt2_30P-104" value="" style="endArrow=none;html=1;rounded=0;" edge="1" parent="1">
          <mxGeometry width="50" height="50" relative="1" as="geometry">
            <mxPoint x="510" y="80" as="sourcePoint" />
            <mxPoint x="520" y="70" as="targetPoint" />
          </mxGeometry>
        </mxCell>
        <mxCell id="50cx5ybg6WjsTkt2_30P-105" value="" style="endArrow=none;html=1;rounded=0;entryDx=0;entryDy=0;" edge="1" parent="1" target="50cx5ybg6WjsTkt2_30P-106">
          <mxGeometry width="50" height="50" relative="1" as="geometry">
            <mxPoint x="780" y="97.17000000000002" as="sourcePoint" />
            <mxPoint x="810" y="97.17000000000002" as="targetPoint" />
          </mxGeometry>
        </mxCell>
        <mxCell id="50cx5ybg6WjsTkt2_30P-106" value="" style="shape=waypoint;sketch=0;fillStyle=solid;size=6;pointerEvents=1;points=[];fillColor=none;resizable=0;rotatable=0;perimeter=centerPerimeter;snapToPoint=1;" vertex="1" parent="1">
          <mxGeometry x="770" y="87.5" width="20" height="20" as="geometry" />
        </mxCell>
        <mxCell id="50cx5ybg6WjsTkt2_30P-107" value="24" style="text;html=1;align=center;verticalAlign=middle;whiteSpace=wrap;rounded=0;" vertex="1" parent="1">
          <mxGeometry x="490" y="75" width="50" height="30" as="geometry" />
        </mxCell>
        <mxCell id="50cx5ybg6WjsTkt2_30P-108" value="" style="group" vertex="1" connectable="0" parent="1">
          <mxGeometry x="620" y="70" width="60" height="90" as="geometry" />
        </mxCell>
        <mxCell id="50cx5ybg6WjsTkt2_30P-109" value="" style="rounded=0;whiteSpace=wrap;html=1;" vertex="1" parent="50cx5ybg6WjsTkt2_30P-108">
          <mxGeometry width="50" height="90" as="geometry" />
        </mxCell>
        <mxCell id="50cx5ybg6WjsTkt2_30P-110" value="" style="triangle;whiteSpace=wrap;html=1;" vertex="1" parent="50cx5ybg6WjsTkt2_30P-108">
          <mxGeometry width="30" height="90" as="geometry" />
        </mxCell>
        <mxCell id="50cx5ybg6WjsTkt2_30P-112" value="S0 ... S23" style="text;html=1;align=center;verticalAlign=middle;whiteSpace=wrap;rounded=0;fontSize=9;" vertex="1" parent="50cx5ybg6WjsTkt2_30P-108">
          <mxGeometry y="80" width="50" as="geometry" />
        </mxCell>
        <mxCell id="50cx5ybg6WjsTkt2_30P-113" value="&lt;font style=&quot;font-size: 8px;&quot;&gt;000...00&lt;/font&gt;&lt;div&gt;&lt;font style=&quot;font-size: 8px;&quot;&gt;000...01&lt;/font&gt;&lt;/div&gt;&lt;div&gt;&lt;br&gt;&lt;/div&gt;&lt;div&gt;&lt;font style=&quot;font-size: 8px;&quot;&gt;...&lt;br&gt;&lt;font style=&quot;color: rgb(234, 107, 102);&quot;&gt;000...1...0&lt;/font&gt;&lt;/font&gt;&lt;/div&gt;" style="text;html=1;align=center;verticalAlign=middle;whiteSpace=wrap;rounded=0;" vertex="1" parent="50cx5ybg6WjsTkt2_30P-108">
          <mxGeometry y="20" width="60" height="30" as="geometry" />
        </mxCell>
        <mxCell id="50cx5ybg6WjsTkt2_30P-118" value="" style="endArrow=none;html=1;rounded=0;" edge="1" parent="1" source="50cx5ybg6WjsTkt2_30P-131" target="50cx5ybg6WjsTkt2_30P-27">
          <mxGeometry width="50" height="50" relative="1" as="geometry">
            <mxPoint x="670" y="119.73" as="sourcePoint" />
            <mxPoint x="780" y="120" as="targetPoint" />
            <Array as="points" />
          </mxGeometry>
        </mxCell>
        <mxCell id="50cx5ybg6WjsTkt2_30P-27" value="" style="shape=waypoint;sketch=0;fillStyle=solid;size=6;pointerEvents=1;points=[];fillColor=none;resizable=0;rotatable=0;perimeter=centerPerimeter;snapToPoint=1;" vertex="1" parent="1">
          <mxGeometry x="770" y="110" width="20" height="20" as="geometry" />
        </mxCell>
        <mxCell id="50cx5ybg6WjsTkt2_30P-120" value="" style="endArrow=none;html=1;rounded=0;entryX=0;entryY=0.25;entryDx=0;entryDy=0;" edge="1" parent="1" target="50cx5ybg6WjsTkt2_30P-109">
          <mxGeometry width="50" height="50" relative="1" as="geometry">
            <mxPoint x="570" y="130" as="sourcePoint" />
            <mxPoint x="620" y="140" as="targetPoint" />
            <Array as="points">
              <mxPoint x="570" y="93" />
            </Array>
          </mxGeometry>
        </mxCell>
        <mxCell id="50cx5ybg6WjsTkt2_30P-121" value="" style="endArrow=none;html=1;rounded=0;" edge="1" parent="1" source="50cx5ybg6WjsTkt2_30P-135">
          <mxGeometry width="50" height="50" relative="1" as="geometry">
            <mxPoint x="570" y="100" as="sourcePoint" />
            <mxPoint x="620" y="80" as="targetPoint" />
            <Array as="points">
              <mxPoint x="570" y="80" />
              <mxPoint x="590" y="80" />
            </Array>
          </mxGeometry>
        </mxCell>
        <mxCell id="50cx5ybg6WjsTkt2_30P-122" value="" style="endArrow=none;html=1;rounded=0;exitX=-0.016;exitY=0.779;exitDx=0;exitDy=0;exitPerimeter=0;" edge="1" parent="1" source="50cx5ybg6WjsTkt2_30P-110">
          <mxGeometry width="50" height="50" relative="1" as="geometry">
            <mxPoint x="540" y="180" as="sourcePoint" />
            <mxPoint x="610" y="140" as="targetPoint" />
          </mxGeometry>
        </mxCell>
        <mxCell id="50cx5ybg6WjsTkt2_30P-124" value="&lt;font style=&quot;font-size: 7px;&quot;&gt;&quot;000...00&quot;&lt;/font&gt;" style="text;html=1;align=center;verticalAlign=middle;whiteSpace=wrap;rounded=0;" vertex="1" parent="1">
          <mxGeometry x="580" y="130" width="30" height="12.5" as="geometry" />
        </mxCell>
        <mxCell id="50cx5ybg6WjsTkt2_30P-126" value="0x64" style="text;html=1;align=center;verticalAlign=middle;whiteSpace=wrap;rounded=0;fontColor=#EA6B66;fontSize=10;" vertex="1" parent="1">
          <mxGeometry x="690" y="165" width="20" height="15" as="geometry" />
        </mxCell>
        <mxCell id="50cx5ybg6WjsTkt2_30P-130" style="edgeStyle=orthogonalEdgeStyle;rounded=0;orthogonalLoop=1;jettySize=auto;html=1;exitX=1;exitY=0.75;exitDx=0;exitDy=0;curved=1;fontColor=#EA6B66;strokeColor=#EA6B66;" edge="1" parent="1" source="50cx5ybg6WjsTkt2_30P-109" target="50cx5ybg6WjsTkt2_30P-126">
          <mxGeometry relative="1" as="geometry" />
        </mxCell>
        <mxCell id="50cx5ybg6WjsTkt2_30P-132" value="" style="endArrow=none;html=1;rounded=0;" edge="1" parent="1" target="50cx5ybg6WjsTkt2_30P-131">
          <mxGeometry width="50" height="50" relative="1" as="geometry">
            <mxPoint x="670" y="119.73" as="sourcePoint" />
            <mxPoint x="780" y="120" as="targetPoint" />
            <Array as="points" />
          </mxGeometry>
        </mxCell>
        <mxCell id="50cx5ybg6WjsTkt2_30P-131" value="" style="shape=waypoint;sketch=0;fillStyle=solid;size=6;pointerEvents=1;points=[];fillColor=none;resizable=0;rotatable=0;perimeter=centerPerimeter;snapToPoint=1;" vertex="1" parent="1">
          <mxGeometry x="680" y="110" width="20" height="20" as="geometry" />
        </mxCell>
        <mxCell id="50cx5ybg6WjsTkt2_30P-134" value="" style="endArrow=none;html=1;rounded=0;exitX=0.5;exitY=1;exitDx=0;exitDy=0;entryDx=0;entryDy=0;" edge="1" parent="1" source="50cx5ybg6WjsTkt2_30P-3" target="50cx5ybg6WjsTkt2_30P-133">
          <mxGeometry width="50" height="50" relative="1" as="geometry">
            <mxPoint x="450" y="130" as="sourcePoint" />
            <mxPoint x="645" y="160" as="targetPoint" />
            <Array as="points" />
          </mxGeometry>
        </mxCell>
        <mxCell id="50cx5ybg6WjsTkt2_30P-133" value="" style="shape=waypoint;sketch=0;fillStyle=solid;size=6;pointerEvents=1;points=[];fillColor=none;resizable=0;rotatable=0;perimeter=centerPerimeter;snapToPoint=1;" vertex="1" parent="1">
          <mxGeometry x="560" y="120" width="20" height="20" as="geometry" />
        </mxCell>
        <mxCell id="50cx5ybg6WjsTkt2_30P-136" value="" style="endArrow=none;html=1;rounded=0;" edge="1" parent="1" target="50cx5ybg6WjsTkt2_30P-135">
          <mxGeometry width="50" height="50" relative="1" as="geometry">
            <mxPoint x="570" y="100" as="sourcePoint" />
            <mxPoint x="620" y="80" as="targetPoint" />
            <Array as="points" />
          </mxGeometry>
        </mxCell>
        <mxCell id="50cx5ybg6WjsTkt2_30P-135" value="" style="shape=waypoint;sketch=0;fillStyle=solid;size=6;pointerEvents=1;points=[];fillColor=none;resizable=0;rotatable=0;perimeter=centerPerimeter;snapToPoint=1;" vertex="1" parent="1">
          <mxGeometry x="560" y="82.5" width="20" height="20" as="geometry" />
        </mxCell>
      </root>
    </mxGraphModel>
  </diagram>
</mxfile>
